# xmcd CD database file generated by OrangeCD 5.1
#
# Track frame offsets:
#	182
#	20410
#	45225
#
# Disc length: 929 seconds
#
# Revision: 0
# Processed by: cddbd v1.5PL3 Copyright (c) Steve Scherf et al.
# Submitted via: OrangeCD 5.1
#
DISCID=16039f03
DTITLE=Crow, Sheryl - All I Wanna Do (live cd)
DYEAR=1994
DGENRE=Country
TTITLE0=All I Wanna Do
TTITLE1=Run Baby Run
TTITLE2=Leaving Las Vegas
EXTD=
EXTT0=
EXTT1=
EXTT2=
PLAYORDER=
